<svg width="30" height="30" viewBox="0 0 30 30" fill="none" xmlns="http://www.w3.org/2000/svg">
<g clip-path="url(#clip0_2442_9605)">
<path d="M22.3446 18.0825C20.2882 18.0825 18.6152 19.7555 18.6152 21.8118C18.6152 23.8682 20.2882 25.5412 22.3446 25.5412C24.4013 25.5412 26.0739 23.8682 26.0739 21.8118C26.0739 19.7555 24.4009 18.0825 22.3446 18.0825ZM22.3446 23.6765C21.3162 23.6765 20.4799 22.8402 20.4799 21.8118C20.4799 20.7835 21.3162 19.9472 22.3446 19.9472C23.3729 19.9472 24.2092 20.7835 24.2092 21.8118C24.2092 22.8402 23.3729 23.6765 22.3446 23.6765Z" fill="#2B6112"/>
<path d="M9.60335 18.0825C7.54695 18.0825 5.87402 19.7555 5.87402 21.8118C5.87402 23.8682 7.54695 25.5412 9.60335 25.5412C11.6597 25.5412 13.3327 23.8682 13.3327 21.8118C13.3327 19.7555 11.6597 18.0825 9.60335 18.0825ZM9.60335 23.6765C8.57501 23.6765 7.73869 22.8402 7.73869 21.8118C7.73869 20.7835 8.57501 19.9472 9.60335 19.9472C10.6314 19.9472 11.468 20.7835 11.468 21.8118C11.468 22.8402 10.6317 23.6765 9.60335 23.6765Z" fill="#2B6112"/>
<path d="M24.8558 7.40819C24.6973 7.09338 24.375 6.89478 24.0226 6.89478H19.1123V8.75944H23.4476L25.9863 13.8089L27.6527 12.971L24.8558 7.40819Z" fill="#2B6112"/>
<path d="M19.5478 20.9106H12.4932V22.7753H19.5478V20.9106Z" fill="#2B6112"/>
<path d="M6.80593 20.9106H3.5739C3.05892 20.9106 2.6416 21.328 2.6416 21.8429C2.6416 22.3579 3.05898 22.7752 3.5739 22.7752H6.80599C7.32097 22.7752 7.73829 22.3579 7.73829 21.8429C7.73829 21.328 7.32091 20.9106 6.80593 20.9106Z" fill="#2B6112"/>
<path d="M29.3901 15.211L27.5562 12.8491C27.38 12.6216 27.1081 12.4886 26.82 12.4886H20.045V5.96233C20.045 5.44735 19.6276 5.03003 19.1127 5.03003H3.5739C3.05892 5.03003 2.6416 5.44741 2.6416 5.96233C2.6416 6.47725 3.05898 6.89463 3.5739 6.89463H18.1804V13.4209C18.1804 13.9359 18.5977 14.3532 19.1127 14.3532H26.3634L27.7212 16.1023V20.9106H25.1417C24.6267 20.9106 24.2094 21.328 24.2094 21.8429C24.2094 22.3579 24.6268 22.7752 25.1417 22.7752H28.6535C29.1685 22.7752 29.5858 22.3578 29.5858 21.8429V15.7829C29.5858 15.5759 29.5168 15.3745 29.3901 15.211Z" fill="#2B6112"/>
<path d="M6.7435 16.187H2.45476C1.93978 16.187 1.52246 16.6044 1.52246 17.1193C1.52246 17.6343 1.93984 18.0516 2.45476 18.0516H6.74344C7.25842 18.0516 7.67575 17.6342 7.67575 17.1193C7.67575 16.6044 7.25842 16.187 6.7435 16.187Z" fill="#2B6112"/>
<path d="M8.88819 12.5198H0.932302C0.41738 12.5198 0 12.9372 0 13.4521C0 13.9671 0.41738 14.3844 0.932302 14.3844H8.88819C9.40317 14.3844 9.82049 13.9671 9.82049 13.4521C9.82049 12.9372 9.40317 12.5198 8.88819 12.5198Z" fill="#2B6112"/>
<path d="M10.4106 8.85254H2.45476C1.93978 8.85254 1.52246 9.26992 1.52246 9.78484C1.52246 10.2998 1.93984 10.7171 2.45476 10.7171H10.4106C10.9256 10.7171 11.3429 10.2998 11.3429 9.78484C11.3429 9.26992 10.9256 8.85254 10.4106 8.85254Z" fill="#2B6112"/>
</g>
<defs>
<clipPath id="clip0_2442_9605">
<rect width="30" height="30" fill="white"/>
</clipPath>
</defs>
</svg>
